PathFileType  4	(X/Y/Z) C:\Users\antoi\Documents\MyRepositories\mobilecap\ResultsAnalysis
DataRate	CameraRate	NumFrames	NumMarkers	Units	OrigDataRate	OrigDataStartFrame	OrigNumFrames
100.0	100.0	7	51	mm	100.0	94	250
Frame#	Time	r_knee			r_shank_antsup			r_ankle			r_calc			r_5meta			r_toe			L_knee			L_shank_antsup			L_ankle			L_calc			L_5meta			L_toe			r_sh2			r_sh3			r_sh4			L_sh2			L_sh3			r_thigh1			r_thigh2			r_thigh3			r_thigh4			r_thigh5			L_thigh1			L_thigh2			L_thigh3			L_thigh4			r.ASIS			r.PSIS			L.ASIS			L.PSIS			C7			R_Shoulder			L_Shoulder			R_Sternum			L_Sternum			R_humerus			R_elbow_med			R_elbow_lat			R_forearm			R_wrist_radius			R_wrist_ulna			L_humerus			L_elbow_med			L_elbow_lat			L_forearm			L_wrist_radius			L_wrist_ulna			R_HJC			L_HJC			R_HJC_reg			L_HJC_reg			
		X1	Y1	Z1	X2	Y2	Z2	X3	Y3	Z3	X4	Y4	Z4	X5	Y5	Z5	X6	Y6	Z6	X7	Y7	Z7	X8	Y8	Z8	X9	Y9	Z9	X10	Y10	Z10	X11	Y11	Z11	X12	Y12	Z12	X13	Y13	Z13	X14	Y14	Z14	X15	Y15	Z15	X16	Y16	Z16	X17	Y17	Z17	X18	Y18	Z18	X19	Y19	Z19	X20	Y20	Z20	X21	Y21	Z21	X22	Y22	Z22	X23	Y23	Z23	X24	Y24	Z24	X25	Y25	Z25	X26	Y26	Z26	X27	Y27	Z27	X28	Y28	Z28	X29	Y29	Z29	X30	Y30	Z30	X31	Y31	Z31	X32	Y32	Z32	X33	Y33	Z33	X34	Y34	Z34	X35	Y35	Z35	X36	Y36	Z36	X37	Y37	Z37	X38	Y38	Z38	X39	Y39	Z39	X40	Y40	Z40	X41	Y41	Z41	X42	Y42	Z42	X43	Y43	Z43	X44	Y44	Z44	X45	Y45	Z45	X46	Y46	Z46	X47	Y47	Z47	X48	Y48	Z48	X49	Y49	Z49	X50	Y50	Z50	X51	Y51	Z51	

94	0.93000000	-926.43926	727.65367	-463.55270	-945.90111	628.03455	-471.24834	-1224.18597	451.82055	-472.10158	-1296.24418	441.12395	-521.03659	-1143.45138	356.50413	-423.18085	-1098.76164	370.52360	-475.47884	-910.57429	730.49537	-750.38350	-921.57838	632.14743	-735.43845	-1206.43637	452.03677	-720.76382	-1290.73014	445.39721	-668.68066	-1142.63548	351.48062	-755.08145	-1087.26930	361.35062	-702.01621	-1029.02010	549.63323	-473.04396	-990.63975	672.24945	-429.22796	-1076.39162	600.71671	-424.63526	-969.16698	697.33819	-775.96872	-1060.69070	616.02415	-776.61421	-902.09393	1007.76374	-426.03537	-880.14940	899.77608	-446.94613	-929.14017	861.29120	-417.22766	-1011.65708	981.77675	-410.90509	-983.26033	870.58946	-430.37041	-879.27589	985.40146	-764.44424	-844.08622	850.51725	-746.04193	-982.64885	956.31821	-791.24589	-948.85434	829.42973	-767.57960	-878.01822	1169.64033	-466.39755	-1062.30373	1264.91816	-551.09474	-876.01867	1166.65419	-720.02713	-1055.77487	1263.31364	-646.47917	-867.26068	1682.75627	-581.69307	-788.44908	1668.32791	-448.70563	-781.77671	1654.04537	-700.91215	-759.48954	1580.82730	-553.03801	-749.73904	1587.86976	-586.42382	-687.50673	1624.23983	-405.82709	-562.31394	1450.20339	-369.35748	-555.03328	1492.36418	-313.61464	-500.46480	1555.96554	-355.30251	-400.75216	1613.65638	-477.01301	-370.81766	1592.47216	-444.11251	-681.62669	1616.92111	-746.22159	-547.06348	1464.24122	-761.44501	-533.54303	1522.86267	-817.59334	-488.93995	1569.06679	-771.76508	-369.08778	1613.43248	-652.28794	-343.17147	1606.28801	-696.31170	-984.58584	1113.19196	-493.03500	-979.94798	1111.15911	-682.52991	-975.37956	1119.03121	-507.89046	-963.94542	1116.22055	-674.88699	
95	0.94000000	-915.28249	738.58672	-462.46137	-935.29682	638.89416	-469.38892	-1213.22944	462.07968	-472.24204	-1284.71328	457.24477	-521.13877	-1140.42436	359.02199	-423.55153	-1094.24338	370.30051	-475.14219	-907.50518	739.05928	-750.27644	-918.77944	640.87047	-735.72908	-1201.31191	456.61038	-721.92361	-1285.31589	453.17621	-670.09840	-1141.22357	352.43375	-754.85170	-1085.68361	360.94015	-702.30216	-1018.30687	560.42327	-471.71862	-980.40853	683.34182	-427.80546	-1065.85473	611.32430	-423.97481	-967.11813	705.70331	-776.06215	-1057.81192	623.36713	-776.48481	-885.29231	1018.76052	-427.12759	-864.76979	910.38054	-446.82414	-913.97312	872.56730	-416.35463	-994.84636	994.00060	-410.09429	-967.97595	882.24280	-429.66929	-866.63302	993.16866	-764.05507	-836.84542	856.73937	-745.72400	-971.13756	968.18327	-790.82332	-942.43139	839.82816	-767.83435	-861.00652	1183.93129	-467.90109	-1047.02857	1274.81450	-551.19448	-858.71081	1181.85477	-719.61861	-1040.74917	1273.48838	-647.04770	-861.89289	1696.18766	-582.77326	-784.24988	1684.66309	-450.58224	-777.06694	1669.36804	-701.14299	-753.13344	1597.58775	-553.47570	-742.20032	1602.14955	-587.13859	-682.87722	1643.06980	-405.70187	-555.43308	1470.76325	-365.17889	-549.33849	1514.13242	-309.41048	-496.56024	1578.51724	-353.01229	-398.97697	1637.29118	-475.46685	-368.26479	1617.69151	-442.29875	-676.79029	1635.75424	-746.03630	-538.60044	1486.11018	-765.35407	-526.96331	1546.10118	-821.11177	-483.49178	1592.15147	-774.88913	-363.82796	1639.50011	-656.26468	-338.07753	1634.25308	-701.55769	-965.90194	1124.88525	-493.79978	-961.13557	1123.55428	-683.29702	-956.43484	1131.91413	-508.80783	-945.57194	1129.61908	-674.58237	
96	0.95000000	-901.53478	750.96751	-461.36310	-922.28501	650.70470	-467.77997	-1199.64492	473.32523	-472.07664	-1270.00722	474.97020	-522.03609	-1136.47301	362.79181	-423.86306	-1088.95915	370.37822	-474.93310	-903.52972	749.24719	-749.78328	-914.82948	651.11821	-735.57960	-1194.54464	462.37585	-723.27823	-1278.22285	462.67154	-671.70976	-1139.16313	354.03555	-755.07322	-1083.60733	360.52308	-702.34492	-1005.18076	572.24824	-470.20591	-967.53505	695.50587	-426.44522	-1053.44221	622.88501	-423.38409	-963.82780	715.54748	-775.65839	-1053.58389	632.30843	-776.61704	-868.04827	1030.92118	-427.99582	-848.08483	922.23173	-446.79476	-897.07856	884.84998	-415.58822	-977.20706	1006.62581	-408.98636	-951.19069	894.67302	-428.89181	-853.44934	1002.25399	-763.19738	-828.96371	864.66814	-745.00938	-958.78597	981.07306	-790.16704	-934.99091	851.66691	-767.80055	-844.55288	1199.09537	-469.40294	-1031.84984	1285.45273	-551.46113	-841.65402	1197.75573	-719.65785	-1025.75601	1284.35397	-647.69670	-856.07224	1709.90592	-583.58666	-779.86272	1700.79046	-451.85910	-772.05344	1684.64289	-701.36061	-746.86597	1614.46286	-553.67207	-735.41600	1617.22468	-587.94593	-678.53989	1661.61833	-404.90643	-549.65794	1490.46104	-360.15365	-544.14210	1535.06572	-304.60842	-492.95032	1599.81372	-350.34810	-396.90169	1658.85630	-473.47335	-365.61053	1640.99913	-439.79832	-671.87708	1654.01553	-746.16782	-530.70164	1506.31860	-770.50788	-520.85455	1567.90587	-824.97792	-477.91707	1613.87659	-779.25540	-358.33948	1663.87969	-661.47676	-332.90078	1660.13650	-707.59751	-947.50484	1137.42027	-494.72115	-942.56646	1136.74972	-684.21803	-937.96410	1145.55896	-509.85469	-927.52796	1143.67764	-674.69608	
97	0.96000000	-885.27522	763.80190	-460.15515	-907.22273	663.35342	-466.03488	-1183.17610	485.33263	-471.60469	-1251.80420	493.97600	-523.61925	-1131.39152	367.76928	-424.07131	-1082.88359	370.98486	-474.57620	-898.27143	760.90472	-748.84455	-909.23506	662.72340	-735.22014	-1185.76256	469.16866	-724.58650	-1269.03708	473.81511	-673.30314	-1136.35142	356.47436	-755.50822	-1080.86627	360.14956	-702.26785	-989.93205	584.79938	-468.47854	-952.76584	708.55416	-425.24340	-1037.37790	636.87311	-420.38071	-958.83078	726.78947	-774.93854	-1047.69487	642.67786	-776.69467	-850.59950	1043.67607	-428.75446	-830.57293	934.78244	-446.88807	-879.19340	897.61060	-415.08667	-959.38357	1019.28742	-407.89493	-933.51943	907.40569	-427.99459	-839.93984	1012.49814	-761.99246	-820.01250	874.23413	-744.13456	-945.71174	994.68439	-789.54863	-926.25455	864.50466	-767.14095	-828.59075	1214.47936	-470.32810	-1016.92349	1296.75880	-551.73502	-825.42464	1213.52364	-719.99145	-1010.95415	1295.77142	-648.17021	-849.66670	1723.63744	-584.15702	-774.95628	1716.46008	-452.53695	-766.78982	1699.93142	-701.27498	-740.19317	1630.70383	-553.43969	-728.41139	1633.47842	-587.89504	-674.19599	1679.73258	-403.58017	-544.26959	1509.01207	-354.49024	-539.31662	1555.00008	-299.30460	-489.21975	1619.67209	-346.92561	-394.19156	1678.33377	-470.93493	-362.57279	1661.96772	-436.75762	-666.81590	1671.52796	-746.61941	-523.15470	1524.33206	-777.34999	-515.12427	1588.12953	-829.14394	-472.17346	1634.15590	-784.27771	-352.24202	1686.21335	-667.83931	-327.29626	1683.54875	-714.15416	-929.80825	1150.52159	-495.37065	-924.85122	1150.22102	-684.86845	-920.44466	1159.36992	-510.51195	-910.26479	1157.68683	-674.98064	
98	0.97000000	-867.27686	776.74333	-458.94400	-890.56377	676.70401	-464.01046	-1164.09187	497.74798	-471.13143	-1229.83293	513.88820	-525.34320	-1125.71107	373.59592	-425.17167	-1075.83177	372.63493	-473.87948	-891.30835	773.68889	-747.74108	-901.61238	675.43815	-734.97062	-1174.90064	476.74704	-725.95729	-1257.44292	486.48813	-674.89942	-1132.93641	359.62024	-755.62843	-1077.49095	359.88904	-702.38976	-972.84690	597.66151	-466.60693	-936.49123	722.43256	-424.03797	-1018.35286	652.68747	-415.57303	-951.93649	739.14874	-774.32015	-1039.92760	654.03500	-776.51423	-833.39234	1056.79212	-429.18565	-812.76611	947.80830	-446.82275	-861.02717	910.46112	-414.64043	-941.81251	1031.68016	-407.06635	-915.45054	919.96583	-427.14070	-826.20560	1023.59819	-760.64445	-809.73125	884.95414	-743.03844	-932.05715	1008.56620	-789.14587	-916.12225	877.83075	-766.01627	-813.06908	1229.46879	-470.75515	-1002.27593	1308.54734	-551.92287	-810.07996	1228.88763	-720.22759	-996.33461	1307.64600	-648.58803	-842.55042	1737.30485	-584.50091	-769.49984	1731.47620	-452.65453	-761.08739	1715.04937	-700.93243	-731.78284	1645.79808	-552.83288	-721.13747	1649.39931	-587.91597	-669.38700	1697.04444	-401.93134	-538.89708	1525.97866	-348.42032	-534.75552	1573.70888	-293.74877	-485.08587	1637.87180	-342.81579	-390.68053	1695.66300	-467.68806	-358.91791	1680.53139	-433.07348	-661.28450	1688.28579	-747.30615	-515.69678	1541.00436	-784.21090	-509.63068	1606.74933	-833.54655	-466.16802	1652.88797	-789.80355	-345.30795	1706.30138	-675.27344	-320.97790	1704.26978	-721.47998	-913.01117	1163.79175	-495.78051	-908.09141	1163.74559	-685.27918	-903.92834	1173.07387	-510.83952	-893.82731	1171.54153	-675.18619	
99	0.98000000	-848.40827	789.92440	-457.77832	-872.48804	690.25039	-461.87752	-1143.69724	510.60826	-470.52826	-1204.99351	533.67350	-526.97182	-1119.26835	381.11684	-427.16393	-1067.46926	376.17542	-472.96362	-882.32741	787.07085	-746.80962	-892.12776	688.76800	-734.89666	-1161.97717	485.23040	-727.69487	-1243.30667	500.52267	-676.77780	-1128.89332	363.43352	-755.65646	-1073.53720	359.90285	-702.84737	-954.13726	610.43568	-464.39826	-918.69118	736.91638	-422.77423	-999.22706	667.68513	-412.48652	-943.38696	752.18705	-773.85770	-1030.33273	665.98664	-776.30155	-816.68727	1070.02799	-429.08549	-795.12538	961.28334	-446.23576	-842.92701	923.27806	-413.94382	-924.72216	1043.68559	-406.36863	-897.30207	932.16894	-426.39205	-812.20179	1035.26104	-759.31973	-798.28785	896.37143	-741.62968	-917.90830	1022.24953	-788.95894	-904.68926	891.21652	-764.99012	-798.18653	1243.91024	-470.92494	-988.06567	1320.54150	-551.99707	-795.37336	1243.94169	-720.17822	-981.95440	1319.86054	-649.03813	-834.66134	1750.74897	-584.46310	-763.60917	1745.72160	-452.22669	-754.78049	1729.56268	-700.66785	-721.61215	1659.88026	-552.17139	-713.42715	1664.28620	-588.12239	-663.88611	1713.14632	-400.07751	-533.84154	1541.37312	-342.03411	-530.39451	1590.94585	-288.11551	-480.44932	1654.28688	-338.28773	-386.35106	1710.74759	-463.74347	-354.49616	1696.77338	-428.75590	-655.06966	1704.10311	-748.27701	-508.35337	1557.09957	-790.03265	-504.11135	1623.77546	-838.24065	-459.80870	1669.98184	-795.97485	-337.64011	1724.28457	-683.76010	-313.80116	1722.19040	-729.68497	-897.17285	1176.95429	-496.12596	-892.12230	1177.29833	-685.62058	-888.36034	1186.51131	-511.17600	-878.02205	1185.35800	-675.36380	
100	0.99000000	-829.10692	802.96273	-456.68516	-853.15387	703.42623	-459.67577	-1123.22422	523.75230	-469.88658	-1180.15217	551.58352	-528.30856	-1109.56378	391.22396	-428.79205	-1056.48541	382.43442	-472.47293	-871.31391	800.32843	-746.08422	-881.05305	702.06878	-735.20124	-1147.03872	494.59898	-729.73015	-1226.49652	515.72119	-679.00812	-1124.02208	368.20448	-756.24056	-1068.97046	360.54757	-703.66909	-934.26932	622.93898	-462.00715	-899.63254	751.15961	-421.59065	-980.81238	680.62133	-412.35120	-933.36693	765.31603	-773.32210	-1019.11122	678.16556	-776.26501	-800.35971	1082.99371	-428.53465	-777.87850	974.88964	-445.16328	-824.99383	935.91627	-413.02397	-908.27263	1055.24835	-405.54909	-879.34628	944.00142	-425.63444	-797.94706	1047.19741	-758.11206	-785.81256	908.19219	-740.16985	-903.41024	1035.33388	-788.95220	-891.97802	904.19705	-764.46741	-784.04157	1257.90282	-470.84839	-974.28011	1332.55548	-551.97752	-781.26047	1258.58815	-719.65818	-968.01422	1332.23221	-649.28745	-826.01716	1763.64597	-584.13699	-757.26725	1759.09133	-451.50731	-747.87549	1743.22527	-700.59866	-711.55529	1673.36904	-551.71521	-705.19062	1678.19985	-588.39248	-657.92025	1727.92284	-398.01546	-528.98305	1555.66194	-335.26068	-526.22919	1606.63082	-282.30197	-475.36203	1669.00185	-333.20975	-381.16808	1723.60597	-459.16675	-349.22704	1710.61544	-423.92468	-648.24020	1718.62765	-749.62386	-501.20810	1572.16818	-795.54518	-498.30788	1639.13637	-843.28041	-453.00016	1685.26793	-802.48555	-328.97178	1740.15655	-692.98848	-305.64553	1737.42456	-738.70669	-882.25469	1189.94901	-496.25241	-876.90913	1190.72203	-685.73790	-873.53319	1199.65385	-511.31316	-862.98033	1199.10901	-675.19772	
